<svg width="34" height="12" viewBox="0 0 34 12" fill="none" xmlns="http://www.w3.org/2000/svg">
<path d="M5.63965 2.3877C5.08822 2.3877 4.59147 2.4834 4.14941 2.6748C3.71191 2.86165 3.33822 3.13509 3.02832 3.49512C2.72298 3.85059 2.48828 4.28125 2.32422 4.78711C2.16016 5.29297 2.07812 5.86263 2.07812 6.49609C2.07812 7.33464 2.20801 8.0638 2.46777 8.68359C2.7321 9.29883 3.12402 9.77507 3.64355 10.1123C4.16764 10.4495 4.82161 10.6182 5.60547 10.6182C6.05208 10.6182 6.47135 10.5817 6.86328 10.5088C7.25977 10.4313 7.64486 10.3356 8.01855 10.2217V11.2334C7.65397 11.3701 7.27116 11.4704 6.87012 11.5342C6.46908 11.6025 5.99284 11.6367 5.44141 11.6367C4.42513 11.6367 3.5752 11.4271 2.8916 11.0078C2.21257 10.584 1.70215 9.98698 1.36035 9.2168C1.02311 8.44661 0.854492 7.53743 0.854492 6.48926C0.854492 5.73275 0.95931 5.04232 1.16895 4.41797C1.38314 3.78906 1.69303 3.24674 2.09863 2.79102C2.50879 2.33529 3.01009 1.98438 3.60254 1.73828C4.19954 1.48763 4.88314 1.3623 5.65332 1.3623C6.15918 1.3623 6.64681 1.41243 7.11621 1.5127C7.58561 1.61296 8.00944 1.75651 8.3877 1.94336L7.92285 2.92773C7.60384 2.7819 7.25293 2.65658 6.87012 2.55176C6.49186 2.44238 6.08171 2.3877 5.63965 2.3877ZM11.1562 11.5H10.0146V0.863281H11.1562V11.5ZM16.3584 3.88477C17.2516 3.88477 17.9147 4.08529 18.3477 4.48633C18.7806 4.88737 18.9971 5.52767 18.9971 6.40723V11.5H18.1699L17.9512 10.3926H17.8965C17.6868 10.666 17.4681 10.8962 17.2402 11.083C17.0124 11.2653 16.748 11.4043 16.4473 11.5C16.151 11.5911 15.7865 11.6367 15.3535 11.6367C14.8978 11.6367 14.4922 11.557 14.1367 11.3975C13.7858 11.238 13.5078 10.9964 13.3027 10.6729C13.1022 10.3493 13.002 9.93913 13.002 9.44238C13.002 8.69499 13.2982 8.12077 13.8906 7.71973C14.4831 7.31868 15.3854 7.09993 16.5977 7.06348L17.8896 7.00879V6.55078C17.8896 5.90365 17.7507 5.4502 17.4727 5.19043C17.1947 4.93066 16.8027 4.80078 16.2969 4.80078C15.9049 4.80078 15.5312 4.85775 15.1758 4.97168C14.8203 5.08561 14.4831 5.22005 14.1641 5.375L13.8154 4.51367C14.1527 4.34049 14.54 4.19238 14.9775 4.06934C15.415 3.94629 15.8753 3.88477 16.3584 3.88477ZM17.876 7.80859L16.7344 7.85645C15.8001 7.8929 15.1416 8.04557 14.7588 8.31445C14.376 8.58333 14.1846 8.96387 14.1846 9.45605C14.1846 9.88444 14.3145 10.2012 14.5742 10.4062C14.834 10.6113 15.1781 10.7139 15.6064 10.7139C16.2718 10.7139 16.8164 10.5293 17.2402 10.1602C17.6641 9.79102 17.876 9.2373 17.876 8.49902V7.80859ZM24.7393 3.87109C24.8896 3.87109 25.0469 3.88021 25.2109 3.89844C25.375 3.91211 25.5208 3.93262 25.6484 3.95996L25.5049 5.0127C25.3818 4.98079 25.2451 4.95573 25.0947 4.9375C24.9443 4.91927 24.8031 4.91016 24.6709 4.91016C24.3701 4.91016 24.0853 4.97168 23.8164 5.09473C23.5521 5.21322 23.3197 5.38639 23.1191 5.61426C22.9186 5.83757 22.7614 6.10872 22.6475 6.42773C22.5335 6.74219 22.4766 7.0931 22.4766 7.48047V11.5H21.335V4.00781H22.2783L22.4014 5.38867H22.4492C22.6042 5.11068 22.791 4.85775 23.0098 4.62988C23.2285 4.39746 23.4814 4.21289 23.7686 4.07617C24.0602 3.93945 24.3838 3.87109 24.7393 3.87109ZM33.5234 7.74023C33.5234 8.35547 33.4437 8.90462 33.2842 9.3877C33.1247 9.87077 32.8945 10.2786 32.5938 10.6113C32.293 10.944 31.9284 11.1992 31.5 11.377C31.0762 11.5501 30.5954 11.6367 30.0576 11.6367C29.5563 11.6367 29.096 11.5501 28.6768 11.377C28.262 11.1992 27.902 10.944 27.5967 10.6113C27.2959 10.2786 27.0612 9.87077 26.8926 9.3877C26.7285 8.90462 26.6465 8.35547 26.6465 7.74023C26.6465 6.91992 26.7855 6.22266 27.0635 5.64844C27.3415 5.06966 27.738 4.62988 28.2529 4.3291C28.7725 4.02376 29.39 3.87109 30.1055 3.87109C30.7891 3.87109 31.3861 4.02376 31.8965 4.3291C32.4115 4.63444 32.8102 5.0765 33.0928 5.65527C33.3799 6.22949 33.5234 6.92448 33.5234 7.74023ZM27.8223 7.74023C27.8223 8.3418 27.902 8.86361 28.0615 9.30566C28.221 9.74772 28.4671 10.0895 28.7998 10.3311C29.1325 10.5726 29.5609 10.6934 30.085 10.6934C30.6045 10.6934 31.0306 10.5726 31.3633 10.3311C31.7005 10.0895 31.9489 9.74772 32.1084 9.30566C32.2679 8.86361 32.3477 8.3418 32.3477 7.74023C32.3477 7.14323 32.2679 6.62826 32.1084 6.19531C31.9489 5.75781 31.7028 5.42057 31.3701 5.18359C31.0374 4.94661 30.6068 4.82812 30.0781 4.82812C29.2988 4.82812 28.7269 5.08561 28.3623 5.60059C28.0023 6.11556 27.8223 6.82878 27.8223 7.74023Z" fill="#F9F9F9"/>
</svg>
