<svg width="43" height="11" viewBox="0 0 43 11" fill="none" xmlns="http://www.w3.org/2000/svg">
<path d="M5.93164 10.5H0.367188V0.505859H5.93164V1.53125H1.5293V4.76465H5.67871V5.77637H1.5293V9.47461H5.93164V10.5ZM12.8223 8.44922C12.8223 8.92773 12.7015 9.33105 12.46 9.65918C12.223 9.98275 11.8812 10.2266 11.4346 10.3906C10.9925 10.5547 10.4639 10.6367 9.84863 10.6367C9.32454 10.6367 8.87109 10.5957 8.48828 10.5137C8.10547 10.4316 7.77051 10.3154 7.4834 10.165V9.11914C7.78874 9.26953 8.15332 9.40625 8.57715 9.5293C9.00098 9.65234 9.43392 9.71387 9.87598 9.71387C10.5231 9.71387 10.9925 9.60905 11.2842 9.39941C11.5758 9.18978 11.7217 8.90495 11.7217 8.54492C11.7217 8.33984 11.6624 8.15983 11.5439 8.00488C11.43 7.84538 11.2363 7.69271 10.9629 7.54688C10.6895 7.39648 10.3112 7.23242 9.82812 7.05469C9.34961 6.8724 8.9349 6.69238 8.58398 6.51465C8.23763 6.33236 7.96875 6.11133 7.77734 5.85156C7.59049 5.5918 7.49707 5.25456 7.49707 4.83984C7.49707 4.20638 7.75228 3.72103 8.2627 3.38379C8.77767 3.04199 9.45215 2.87109 10.2861 2.87109C10.7373 2.87109 11.1589 2.91667 11.5508 3.00781C11.9473 3.0944 12.3164 3.21289 12.6582 3.36328L12.2754 4.27246C11.9655 4.1403 11.6351 4.02865 11.2842 3.9375C10.9333 3.84635 10.5755 3.80078 10.2109 3.80078C9.68685 3.80078 9.28353 3.88737 9.00098 4.06055C8.72298 4.23372 8.58398 4.4707 8.58398 4.77148C8.58398 5.00391 8.64779 5.19531 8.77539 5.3457C8.90755 5.49609 9.11719 5.63737 9.4043 5.76953C9.69141 5.90169 10.0697 6.05664 10.5391 6.23438C11.0085 6.40755 11.4141 6.58757 11.7559 6.77441C12.0977 6.95671 12.3597 7.18001 12.542 7.44434C12.7288 7.7041 12.8223 8.03906 12.8223 8.44922ZM17.6484 10.6367C16.974 10.6367 16.3792 10.4977 15.8643 10.2197C15.3493 9.94173 14.9482 9.5179 14.6611 8.94824C14.374 8.37858 14.2305 7.66081 14.2305 6.79492C14.2305 5.88802 14.3809 5.14746 14.6816 4.57324C14.987 3.99447 15.4062 3.56608 15.9395 3.28809C16.4727 3.01009 17.0788 2.87109 17.7578 2.87109C18.1315 2.87109 18.4915 2.90983 18.8379 2.9873C19.1888 3.06022 19.4759 3.15365 19.6992 3.26758L19.3574 4.21777C19.1296 4.12663 18.8652 4.0446 18.5645 3.97168C18.2682 3.89876 17.9902 3.8623 17.7305 3.8623C17.2109 3.8623 16.778 3.97396 16.4316 4.19727C16.0898 4.42057 15.8324 4.7487 15.6592 5.18164C15.4906 5.61458 15.4062 6.14779 15.4062 6.78125C15.4062 7.38737 15.4883 7.90462 15.6523 8.33301C15.821 8.76139 16.0693 9.08952 16.3975 9.31738C16.7301 9.54069 17.1449 9.65234 17.6416 9.65234C18.0381 9.65234 18.3958 9.61133 18.7148 9.5293C19.0339 9.44271 19.3232 9.34245 19.583 9.22852V10.2402C19.3324 10.3678 19.0521 10.4658 18.7422 10.5342C18.4368 10.6025 18.0723 10.6367 17.6484 10.6367ZM27.5469 3.00781V10.5H26.6172L26.4531 9.44727H26.3916C26.2367 9.70703 26.0361 9.92578 25.79 10.1035C25.5439 10.2812 25.266 10.4134 24.9561 10.5C24.6507 10.5911 24.3249 10.6367 23.9785 10.6367C23.3861 10.6367 22.8893 10.541 22.4883 10.3496C22.0872 10.1582 21.7842 9.86198 21.5791 9.46094C21.3786 9.0599 21.2783 8.54492 21.2783 7.91602V3.00781H22.4268V7.83398C22.4268 8.45833 22.568 8.92546 22.8506 9.23535C23.1331 9.54069 23.5638 9.69336 24.1426 9.69336C24.6986 9.69336 25.1406 9.58854 25.4688 9.37891C25.8014 9.16927 26.0407 8.86165 26.1865 8.45605C26.3324 8.0459 26.4053 7.5446 26.4053 6.95215V3.00781H27.5469ZM33.3506 2.87109C33.501 2.87109 33.6582 2.88021 33.8223 2.89844C33.9863 2.91211 34.1322 2.93262 34.2598 2.95996L34.1162 4.0127C33.9932 3.98079 33.8564 3.95573 33.7061 3.9375C33.5557 3.91927 33.4144 3.91016 33.2822 3.91016C32.9814 3.91016 32.6966 3.97168 32.4277 4.09473C32.1634 4.21322 31.931 4.38639 31.7305 4.61426C31.5299 4.83757 31.3727 5.10872 31.2588 5.42773C31.1449 5.74219 31.0879 6.0931 31.0879 6.48047V10.5H29.9463V3.00781H30.8896L31.0127 4.38867H31.0605C31.2155 4.11068 31.4023 3.85775 31.6211 3.62988C31.8398 3.39746 32.0928 3.21289 32.3799 3.07617C32.6715 2.93945 32.9951 2.87109 33.3506 2.87109ZM42.1348 6.74023C42.1348 7.35547 42.055 7.90462 41.8955 8.3877C41.736 8.87077 41.5059 9.27865 41.2051 9.61133C40.9043 9.94401 40.5397 10.1992 40.1113 10.377C39.6875 10.5501 39.2067 10.6367 38.6689 10.6367C38.1676 10.6367 37.7074 10.5501 37.2881 10.377C36.8734 10.1992 36.5133 9.94401 36.208 9.61133C35.9072 9.27865 35.6725 8.87077 35.5039 8.3877C35.3398 7.90462 35.2578 7.35547 35.2578 6.74023C35.2578 5.91992 35.3968 5.22266 35.6748 4.64844C35.9528 4.06966 36.3493 3.62988 36.8643 3.3291C37.3838 3.02376 38.0013 2.87109 38.7168 2.87109C39.4004 2.87109 39.9974 3.02376 40.5078 3.3291C41.0228 3.63444 41.4215 4.0765 41.7041 4.65527C41.9912 5.22949 42.1348 5.92448 42.1348 6.74023ZM36.4336 6.74023C36.4336 7.3418 36.5133 7.86361 36.6729 8.30566C36.8324 8.74772 37.0785 9.08952 37.4111 9.33105C37.7438 9.57259 38.1722 9.69336 38.6963 9.69336C39.2158 9.69336 39.6419 9.57259 39.9746 9.33105C40.3118 9.08952 40.5602 8.74772 40.7197 8.30566C40.8792 7.86361 40.959 7.3418 40.959 6.74023C40.959 6.14323 40.8792 5.62826 40.7197 5.19531C40.5602 4.75781 40.3141 4.42057 39.9814 4.18359C39.6488 3.94661 39.2181 3.82812 38.6895 3.82812C37.9102 3.82812 37.3382 4.08561 36.9736 4.60059C36.6136 5.11556 36.4336 5.82878 36.4336 6.74023Z" fill="#F9F9F9"/>
</svg>
